# xmcd
# 
# Track frame offsets:
#     150
#     11841
#     24508
#     37191
#     48732
#     59149
#     72158
#     83566
#     94949
#     106688
#     120408
#     130803
#     144670
#     155031
#     171575
#     180135
#     188728
#     198930
#     211591
#     222580
#     234856
#     243901
#     254316
#     263938
# 
# Disc length: 3662
# 
# Revision: 1
# Processed by: cddbd v1.5.2PL0 Copyright (c) Steve Scherf et al.
# Submitted via: fre:ac v1.0.17
# 
DISCID=560e4c18
DTITLE=Charley Pride - The Coutry Way-Make Mine Country
DYEAR=2014
DGENRE=Country
TTITLE0=Too Hard To Say I'm Sorry
TTITLE1=The Little Folks
TTITLE2=Crystal Chandeliers
TTITLE3=Act Naturally
TTITLE4=Does My Ring Hurt Your Finger
TTITLE5=Mama Don't Cry for Me
TTITLE6=The Day the World Stood Still
TTITLE7=Gone, On the Other Hand
TTITLE8=You Can Tell the World
TTITLE9=I'll Wander Back to You
TTITLE10=Life Turned Her That Way
TTITLE11=I Threw Away the Rose
TTITLE12=Now I Can Live Again
TTITLE13=A Word or Two to Mary
TTITLE14=If You Should Come Back Today
TTITLE15=Guess Things Happen That Way
TTITLE16=Before the Next Tear Drop Falls
TTITLE17=Banks of the Ohio
TTITLE18=Wings of A Dove
TTITLE19=A Girl I Used to Know
TTITLE20=Lie to Me
TTITLE21=Why Didn't I Think of That
TTITLE22=Above and Beyond
TTITLE23=Baby is Gone
EXTD=
EXTT0=
EXTT1=
EXTT2=
EXTT3=
EXTT4=
EXTT5=
EXTT6=
EXTT7=
EXTT8=
EXTT9=
EXTT10=
EXTT11=
EXTT12=
EXTT13=
EXTT14=
EXTT15=
EXTT16=
EXTT17=
EXTT18=
EXTT19=
EXTT20=
EXTT21=
EXTT22=
EXTT23=
PLAYORDER=
